<?xml version="1.0" standalone="no"?>
<!DOCTYPE svg PUBLIC "-//W3C//DTD SVG 20010904//EN"
 "http://www.w3.org/TR/2001/REC-SVG-20010904/DTD/svg10.dtd">
<svg version="1.0" xmlns="http://www.w3.org/2000/svg"
 width="300.000000pt" height="300.000000pt" viewBox="0 0 300.000000 300.000000"
 preserveAspectRatio="xMidYMid meet">
<metadata>
Created by potrace 1.11, written by Peter Selinger 2001-2013
</metadata>
<g transform="translate(0.000000,300.000000) scale(0.100000,-0.100000)"
fill="#000000" stroke="none">
<path d="M1326 2779 c-575 -79 -1034 -544 -1105 -1119 -64 -509 182 -1008 625
-1272 501 -297 1149 -215 1559 197 255 256 385 568 385 922 0 543 -363 1044
-882 1217 -40 14 -109 32 -153 41 -95 20 -332 28 -429 14z m737 -564 c46 -12
129 -46 145 -60 4 -3 -47 -266 -56 -288 -6 -16 -10 -16 -42 6 -53 36 -115 57
-166 57 -57 0 -78 -11 -94 -49 -22 -54 -12 -73 115 -236 38 -49 83 -119 99
-155 71 -157 33 -358 -91 -484 -92 -92 -216 -130 -362 -108 -90 14 -221 73
-221 100 0 18 51 285 56 290 1 2 24 -10 49 -28 54 -37 141 -70 185 -70 37 0
85 23 94 45 3 9 6 34 6 55 0 40 -6 50 -125 200 -66 84 -77 103 -103 173 -24
64 -29 179 -11 256 33 143 134 253 274 297 55 17 179 17 248 -1z m-563 -15 c0
-5 -43 -231 -96 -502 -107 -551 -122 -601 -205 -692 -66 -73 -127 -98 -247
-104 -86 -4 -191 9 -221 28 -9 5 -6 42 16 149 26 133 29 142 48 136 41 -14
142 -17 164 -6 11 6 27 24 35 40 8 15 51 214 95 442 45 228 86 438 92 467 l10
52 155 0 c93 0 154 -4 154 -10z"/>
</g>
</svg>
