<?xml version="1.0" encoding="iso-8859-1"?>
<!-- Generator: Adobe Illustrator 19.0.0, SVG Export Plug-In . SVG Version: 6.00 Build 0)  -->
<svg version="1.1" id="Layer_1" xmlns="http://www.w3.org/2000/svg" xmlns:xlink="http://www.w3.org/1999/xlink" x="0px" y="0px"
	 viewBox="0 0 514.81 514.81" style="enable-background:new 0 0 514.81 514.81;" xml:space="preserve">
<g transform="translate(0 -1)">
	<g>
		<g>
			<path d="M127.858,270.334c5.12,0,8.533-3.413,8.533-8.533s-3.413-8.533-8.533-8.533c-5.12,0-8.533,3.413-8.533,8.533
				S122.738,270.334,127.858,270.334z"/>
			<path d="M127.858,236.201c5.12,0,8.533-3.413,8.533-8.533c0-5.12-3.413-8.533-8.533-8.533c-5.12,0-8.533,3.413-8.533,8.533
				C119.325,232.788,122.738,236.201,127.858,236.201z"/>
			<path d="M505.885,267.774c-0.255-0.446-0.546-0.847-0.853-1.227v-1.333c0-5.973-5.12-12.8-14.507-17.067
				c-13.653-6.827-36.693-11.093-70.827-11.093c-0.853,0-1.707,0-2.56,0c-9.387,0-19.627,0-29.867-1.707
				c-15.36-2.56-24.747-8.533-26.453-15.36c-0.853-2.56-2.56-4.267-4.267-5.973c-0.853,0-1.707-0.853-2.56-0.853
				c-2.56-0.853-4.267-0.853-6.827-0.853s-5.12,0.853-7.68,1.707l-6.827-5.12c-0.853-1.707-1.707-3.413-2.56-5.12
				c-5.12-9.387-14.507-12.8-24.747-7.68l-5.973-2.56c-0.773-0.773-0.852-2.238-1.492-3.143c-0.427-1.015-1.067-1.976-1.921-2.83
				c-0.31-0.31-0.639-0.582-0.975-0.836c-4.436-4.48-10.832-6.374-17.799-4.284c-1.707-0.853-2.56-1.707-4.267-2.56
				c-1.707-1.707-3.413-2.56-4.267-3.413s-0.853-2.56-1.707-4.267c-4.267-6.827-11.947-9.387-19.627-5.12
				c-0.853,0-1.707,0-2.56-0.853c-3.413-1.707-7.68-5.12-11.947-11.093c-7.68-11.093-23.893-19.627-37.547-19.627
				c-17.067,0-26.453,13.653-22.187,34.133c-1.707,1.707-3.413,3.413-5.973,5.12c-10.24,6.827-25.6,10.24-46.933,8.533
				c-0.853,0-2.56,0-4.267-0.853c-3.413-0.853-7.68-2.56-11.093-3.413c-4.267-2.56-8.533-5.12-10.24-7.68
				c-6.827-8.533-21.333-14.507-34.987-14.507c-4.869,0-9.389,0.697-13.306,2.067c-11.548-2.373-20.827-13.075-20.827-25.107
				c0-5.12-3.413-8.533-8.533-8.533s-8.533,3.413-8.533,8.533c0,17.249,9.786,31.825,24.217,38.601
				c-0.039,0.141-0.068,0.285-0.104,0.427c-0.052,0.22-0.104,0.439-0.149,0.663c-0.252,1.198-0.395,2.435-0.393,3.718
				c0,0.008-0.001,0.016-0.001,0.024c0,0.054,0.002,0.108,0.002,0.162c-0.011,1.335,0.091,2.732,0.322,4.192
				c0.59,5.897,0.771,10.162,0.546,12.799c-0.245,0.688-0.546,1.2-0.546,1.708c-1.707,0.853-2.56,0.853-3.413,1.707
				c-2.56,3.413-6.827,9.387-10.24,17.92c-9.387,20.48-13.653,43.52-6.827,67.413v0.81c-1.164,0.946-2.36,2.052-3.413,3.456
				c-8.533,8.533-11.093,21.333-2.56,34.133c-0.853,0.853-0.853,0.853-0.853,1.707c-5.12,9.387-6.827,18.773-2.56,28.16
				c5.973,16.213,27.307,26.453,64.853,30.72c2.56,0,4.267-0.853,6.827-1.707c0.853-0.853,2.56-1.707,5.12-3.413
				c4.267-2.56,7.68-3.413,11.093-3.413c4.267,0,6.827,3.413,10.24,11.093c1.707,3.413,5.12,5.973,9.387,5.12
				c0.853,0,2.56,0,5.12-0.853c4.267-0.853,9.387-1.707,14.507-2.56c14.507-2.56,29.013-5.973,43.52-10.24
				c11.093-3.413,21.333-6.827,30.72-11.093c0.853,0,3.413-0.853,6.827-1.707c4.267-0.853,8.533-1.707,11.947-1.707
				c5.973-0.853,10.24,0.853,11.093,1.707c6.827,7.68,27.307,18.773,44.373,23.893c23.04,6.827,41.813,3.413,51.2-13.653
				c1.707,0,2.56,0,4.267,0.853c2.56,0.853,4.267,2.56,5.12,6.827c0.853,2.56,2.56,4.267,4.267,5.12s4.267,1.707,7.68,2.56
				c7.68,2.56,15.36,3.413,23.893,1.707c11.093-1.707,19.627-7.68,25.6-17.067l4.267-1.707c1.707,0.853,2.56,1.707,4.267,2.56
				c6.827,3.413,14.507,5.973,22.187,5.12c10.24-0.853,19.627-6.827,24.747-18.773l7.68-5.12h5.973c0.853,0,1.707,0,2.56-0.853
				c5.12-2.56,12.8-6.827,21.333-13.653C515.272,322.388,522.098,296.788,505.885,267.774z M39.965,211.454
				c0.853-0.853,0.853-0.853,1.707-1.707c1.707-0.853,2.56-2.56,3.413-4.267c2.352-4.116,3.488-9.448,3.409-16.273
				c-0.02-3.021-0.267-6.374-0.732-10.087c18.698,14.512,28.897,37.504,28.897,61.347c0,18.717-6.789,36.584-18.669,51.068
				c-0.858-0.191-1.743-0.407-2.653-0.647c-3.682-1.136-7.636-2.433-11.818-3.955c-4.835-1.922-10.047-4.326-15.5-7.214
				c-1.903-7.293-2.74-14.586-2.61-21.792c0.251-12.321,3.251-24.185,8.583-35.382C35.698,218.281,38.258,214.868,39.965,211.454z
				 M80.072,180.734c4.267,5.12,10.24,9.387,17.067,12.8c7.68,3.413,15.36,5.12,20.48,5.973c25.6,2.56,44.373-1.707,58.027-11.093
				c6.827-4.267,11.093-9.387,13.653-12.8c0.853-1.707,1.707-4.267,0.853-5.973c-3.413-13.653-0.853-17.067,5.12-17.067
				c7.68,0,18.773,5.973,23.04,12.8c6.107,9.16,12.82,14.676,19.235,17.458l-19.235,19.235c-3.413,3.413-3.413,8.533,0,11.947
				s8.533,3.413,11.947,0l26.17-26.17c1.762,1.942,4.004,4.001,6.257,5.69c3.941,2.365,7.144,4.711,9.629,5.731l-20.722,20.722
				c-3.413,3.413-3.413,8.533,0,11.947s8.533,3.413,11.947,0l24.598-24.598l10.388,6.678c0.388,0.194,0.788,0.363,1.195,0.512
				l-17.408,17.408c-3.413,3.413-3.413,8.533,0,11.947c3.413,3.413,8.533,3.413,11.947,0l23.359-23.359
				c0.17,0.115,0.345,0.224,0.535,0.319l16.213,11.947c3.413,2.56,10.24-3.413,11.947-1.707c5.973,11.093,19.627,17.92,36.693,20.48
				c11.093,1.707,23.04,2.56,33.28,1.707c0.853,0,1.707,0,2.56,0c31.573,0,52.053,3.413,63.147,9.387
				c2.56,1.707,4.267,2.56,5.12,4.267c0,0-0.853,1.707-1.707,2.56c-1.707,3.413-4.267,6.827-5.973,9.387
				c-1.707,2.56-2.56,4.267-4.267,5.973c-1.707,2.56-3.413,4.267-5.12,5.12l-1.707,0.853c-0.853,0.853-2.56,2.56-5.973,5.12
				c-5.12,4.267-11.947,8.533-20.48,12.8c-51.2,25.6-127.147,28.16-232.107-8.533c-2.56-0.853-9.387-3.413-17.92-5.12
				c-28.16-5.12-64.853-6.827-111.787-0.853c-0.534,0-1.116-0.001-1.737-0.007c10.546-15.802,16.243-34.513,16.243-53.753
				c0-25.01-9.652-48.491-25.81-66.149C74.112,175.688,78.455,178.04,80.072,180.734z M479.432,326.654
				c-3.413,3.413-7.68,5.973-11.947,8.533c-1.707,0.853-2.56,1.707-3.413,1.707l-6.827,0.853c-1.707,0-2.56,0.853-4.267,1.707
				l-11.947,7.68c-1.707,0.853-2.56,2.56-3.413,4.267c-3.413,7.68-6.827,10.24-11.093,11.093c-3.413,0-8.533-0.853-12.8-3.413
				c-2.56-1.707-4.267-2.56-5.973-3.413c-2.56-1.707-5.12-2.56-7.68-1.707l-11.947,4.267c-2.56,0.853-4.267,2.56-5.12,4.267
				c-3.413,6.827-7.68,10.24-14.507,11.093c-5.12,0.853-11.093,0-16.213-1.707c-0.853,0-1.707-0.853-1.707-0.853
				c-3.413-6.827-8.533-11.093-14.507-12.8c-5.12-1.707-10.24-1.707-15.36-0.853c-0.853,0-2.56,0.853-2.56,0.853
				c-2.56,0.853-4.267,2.56-5.12,5.12c-3.413,10.24-14.507,12.8-32.427,7.68c-14.507-4.267-31.573-13.653-36.693-18.773
				c-5.973-5.973-14.507-8.533-24.747-7.68c-5.12,0-9.387,0.853-14.507,2.56c-4.267,0.853-6.827,1.707-8.533,2.56
				c-8.533,4.267-17.92,7.68-29.013,10.24c-12.8,4.267-27.307,6.827-41.813,10.24c-4.267,0.853-8.533,1.707-12.8,2.56
				c-5.12-9.387-12.8-14.507-21.333-15.36c-6.827-0.853-14.507,1.707-21.333,5.12c-1.707,0.853-3.413,1.707-4.267,2.56
				c-29.013-3.413-43.52-11.093-46.933-19.627c-1.707-4.267-0.853-8.533,1.707-13.653c0.853-1.707,2.56-3.413,2.56-4.267
				c2.56-3.413,2.56-7.68,0-11.093c-6.827-8.533-5.973-14.507-1.707-19.627c16.213,6.827,29.867,11.093,41.813,13.653
				c8.533,1.707,15.36,2.56,20.48,2.56c0.045-0.005,0.089-0.009,0.133-0.014c0.237,0.003,0.49,0.014,0.72,0.014
				c21.304-2.367,40.232-3.455,57.047-3.437c19.189,0.063,35.603,1.578,49.62,4.291c5.12,0.853,8.533,1.707,11.947,2.56
				c1.707,0.853,3.413,0.853,3.413,0.853c56.352,19.811,104.982,28.72,146.475,28.835c37.624,0.118,69.445-7.028,95.813-19.854
				c0.879-0.427,1.752-0.861,2.618-1.301c15.36-7.68,25.6-15.36,30.72-21.333c2.56-1.707,5.12-4.267,7.68-7.68
				c1.707-1.707,3.413-4.267,5.12-6.827C498.205,303.614,492.232,315.561,479.432,326.654z"/>
			<path d="M218.312,286.548c49.493,17.067,94.72,26.453,134.827,26.453c5.12,0,8.533-3.413,8.533-8.533
				c0-5.973-4.267-9.387-8.533-9.387c-37.547,0-81.067-8.533-128.853-24.747c-4.267-1.707-9.387,0.853-11.093,5.12
				S214.045,284.841,218.312,286.548z"/>
		</g>
	</g>
</g>
<g>
</g>
<g>
</g>
<g>
</g>
<g>
</g>
<g>
</g>
<g>
</g>
<g>
</g>
<g>
</g>
<g>
</g>
<g>
</g>
<g>
</g>
<g>
</g>
<g>
</g>
<g>
</g>
<g>
</g>
</svg>
